<?xml version="1.0" encoding="utf-8"?>
<!-- Generator: Adobe Illustrator 16.0.0, SVG Export Plug-In . SVG Version: 6.00 Build 0)  -->
<!DOCTYPE svg PUBLIC "-//W3C//DTD SVG 1.1//EN" "http://www.w3.org/Graphics/SVG/1.1/DTD/svg11.dtd">
<svg version="1.1" id="Layer_1" xmlns="http://www.w3.org/2000/svg" xmlns:xlink="http://www.w3.org/1999/xlink" x="0px" y="0px"
	 width="1041.834px" height="1036.939px" viewBox="0 0 1041.834 1036.939" enable-background="new 0 0 1041.834 1036.939"
	 xml:space="preserve">
<path fill-rule="evenodd" clip-rule="evenodd" fill="#D2527F" d="M65.84,616.656C10.054,604.66-2.06,568.807,0,523.195
	c1.151-25.74-0.032-51.577,0.15-77.409c0.516-66.897,23.201-88.944,91.461-89.157c21.17-0.063,42.369,0,71.048,0
	c0-40.765,0-79.44,0-118.082c-0.029-53.152-0.727-106.27,0.061-159.388c0.758-53.458,24.441-77.807,78.56-78.199
	c124.472-0.877,249.003-2.089,373.353,1.212c25.861,0.698,56.147,14.903,75.834,32.404c48.636,43.309,91.159,93.369,138.461,138.315
	c33.257,31.643,50.152,66.897,44.947,113.201c-2.308,20.777-0.368,42.068-0.368,64.478c56.694,22.047,153.906-29.316,159.237,74.773
	c3.393,66.596,40.765,153.393-60.388,194.826c15.567,44.457,30.893,88.493,46.4,132.466
	c43.483,123.199-24.349,247.063-152.035,275.773c-22.043,4.968-45.063,7.691-67.653,7.755c-186.675,0.605-373.414,1.391-560.091,0
	C101.879,1035.072,18.533,964.629,3.998,838.4c-2.818-24.471,2.695-51.242,9.994-75.166
	C28.498,715.686,46.941,669.289,65.84,616.656z M518.449,973.595c0,0.058,0,0.058,0,0.121c56.083,0,112.236,1.027,168.32-0.306
	c57.48-1.332,116.056,1.518,171.961-9.203c86.738-16.6,130.948-106.605,100.789-189.467
	c-19.14-52.633-39.432-104.966-56.391-158.326c-8.238-25.745-20.292-37.735-48.097-34.285
	c-91.881,11.447-184.978-17.627-277.833,25.745c-45.974,21.499-112.81,26.651-161.113-22.231
	c-4.846-4.904-17.384-2.786-26.348-2.844c-71.29-0.186-142.612,0.848-213.873-0.67c-24.015-0.543-34.493,7.997-41.853,30.345
	c-19.413,58.938-42.643,116.661-61.781,175.716c-5.755,17.748-7.117,38.947-3.696,57.301
	c15.354,81.767,71.382,126.045,163.237,127.678C327.29,974.928,422.868,973.595,518.449,973.595z M228.771,387.429
	c194.613,0,386.347,0,578.837,0c0-43.551,0-83.768,0-129.679c-63.844,0-125.201,0-191.948,0c0-67.023,0-128.472,0-191.221
	c-132.251,0-258.873,0-386.889,0C228.771,174.859,228.771,280.248,228.771,387.429z M192.672,421.922
	c0,37.522-2.028,70.687,1.243,103.333c0.998,9.693,16.868,25.562,26.045,25.619c198.428,1.696,396.854,1.759,595.282,0.728
	c9.324-0.059,25.919-12.84,26.588-20.715c2.908-35.491,1.27-71.322,1.27-108.965C624.263,421.922,412.632,421.922,192.672,421.922z
	 M648.613,223.645c52.639,0,102.18,0,141.854,0c-44.879-46.789-92.365-96.306-141.854-147.878
	C648.613,124.887,648.613,172.465,648.613,223.645z M66.81,422.348c0,45.606,0,85.585,0,127.134c33.191,0,62.537,0,91.672,0
	c0-44.52,0-85.677,0-127.134C125.804,422.348,97.578,422.348,66.81,422.348z M875.873,545.911c33.799,0,64.687,0,93.46,0
	c0-45.369,0-83.831,0-122.414c-33.194,0-62.568,0-93.46,0C875.873,467.14,875.873,507.144,875.873,545.911z"/>
<g>
	<circle fill-rule="evenodd" class="c" clip-rule="evenodd" fill="#D2527F" cx="344.517" cy="873.027" r="46.688"/>
	<circle fill-rule="evenodd" class="c" clip-rule="evenodd" fill="#D2527F" cx="528.189" cy="873.027" r="46.688"/>
	<circle fill-rule="evenodd" class="c" clip-rule="evenodd" fill="#D2527F" cx="711.861" cy="873.027" r="46.688"/>
</g>
<g>
	<circle fill-rule="evenodd" class="c" clip-rule="evenodd" fill="#D2527F" cx="265.47" cy="729.93" r="46.688"/>
	<circle fill-rule="evenodd" class="c" clip-rule="evenodd" fill="#D2527F" cx="440.616" cy="729.93" r="46.688"/>
	<circle fill-rule="evenodd" class="c" clip-rule="evenodd" fill="#D2527F" cx="615.762" cy="729.93" r="46.688"/>
	<circle fill-rule="evenodd" class="c" clip-rule="evenodd" fill="#D2527F" cx="790.908" cy="729.93" r="46.688"/>
</g>
<path fill-rule="evenodd" clip-rule="evenodd" fill="#D2527F" d="M574.876,160.93c0,6.627-5.373,12-12,12H309.83
	c-6.627,0-12-5.373-12-12v-30c0-6.627,5.373-12,12-12h253.047c6.627,0,12,5.373,12,12V160.93z"/>
<path fill-rule="evenodd" clip-rule="evenodd" fill="#D2527F" d="M574.876,236.93c0,6.627-5.373,12-12,12H309.83
	c-6.627,0-12-5.373-12-12v-30c0-6.627,5.373-12,12-12h253.047c6.627,0,12,5.373,12,12V236.93z"/>
</svg>
