<?xml version="1.0" encoding="UTF-8"?>
<svg width="410px" height="71px" viewBox="0 0 410 71" version="1.1" xmlns="http://www.w3.org/2000/svg" xmlns:xlink="http://www.w3.org/1999/xlink">
    <!-- Generator: Sketch 49.2 (51160) - http://www.bohemiancoding.com/sketch -->
    <title>Group 3</title>
    <desc>Created with Sketch.</desc>
    <defs></defs>
    <g id="Page-1" stroke="none" stroke-width="1" fill="none" fill-rule="evenodd">
        <g id="Desktop-HD" transform="translate(-240.000000, -355.000000)" fill-rule="nonzero">
            <g id="Group-3" transform="translate(240.000000, 355.000000)">
                <g id="coffee-long" transform="translate(351.000000, 2.000000)">
                    <path d="M48.0974211,68 L10.9025789,68 C10.0935379,68.0028457 9.41790219,67.3868242 9.34994737,66.5843636 L4.65789474,10.8181818 L54.3421053,10.8181818 L49.6438421,66.5843636 C49.576083,67.3844545 48.9040783,67.999626 48.0974211,68 Z" id="Shape" fill="#EAD8C5"></path>
                    <polygon id="Shape" fill="#C19F85" points="51.0877895 49.4545455 52.9105789 27.8181818 6.08942105 27.8181818 7.91221053 49.4545455"></polygon>
                    <path d="M57.4473684,7.72727273 L1.55263158,7.72727273 C0.695136836,7.72727273 0,8.4191963 0,9.27272727 L0,10.8181818 C0,11.6717128 0.695136836,12.3636364 1.55263158,12.3636364 L57.4473684,12.3636364 C58.3048632,12.3636364 59,11.6717128 59,10.8181818 L59,9.27272727 C59,8.4191963 58.3048632,7.72727273 57.4473684,7.72727273 Z" id="Shape" fill="#444444"></path>
                    <path d="M46.9686579,0.972090909 C46.7331628,0.385358348 46.1625738,0.000399910538 45.5278158,0 L13.4721842,0 C12.8374262,0.000399910538 12.2668372,0.385358348 12.0313421,0.972090909 L9.31578947,7.72727273 L49.6842105,7.72727273 L46.9686579,0.972090909 Z" id="Shape" fill="#5B5B5B"></path>
                </g>
                <g id="code-editor" transform="translate(176.000000, 6.000000)">
                    <path d="M71,10.7692308 L71,3.07692308 C71,1.37692308 69.618587,0 67.9130435,0 L3.08695652,0 C1.38141304,0 0,1.37692308 0,3.07692308 L0,10.7692308 L71,10.7692308 Z" id="Shape" fill="#444444"></path>
                    <path d="M67.9130435,60 L21.6086957,60 L21.6086957,10.7692308 L71,10.7692308 L71,56.9230769 C71,58.6230769 69.618587,60 67.9130435,60 Z" id="Shape" fill="#606060"></path>
                    <ellipse id="Oval" fill="#E86C60" cx="5.40217391" cy="5.38461538" rx="2.31521739" ry="2.30769231"></ellipse>
                    <ellipse id="Oval" fill="#EFD358" cx="13.1195652" cy="5.38461538" rx="2.31521739" ry="2.30769231"></ellipse>
                    <ellipse id="Oval" fill="#72C472" cx="20.8369565" cy="5.38461538" rx="2.31521739" ry="2.30769231"></ellipse>
                    <path d="M23.1521739,60 L3.08695652,60 C1.38141304,60 0,58.6230769 0,56.9230769 L0,10.7692308 L23.1521739,10.7692308 L23.1521739,60 Z" id="Shape" fill="#4F4F4F"></path>
                    <rect id="Rectangle-path" fill="#B3B3B3" x="6.17391304" y="15.3846154" width="10.8043478" height="3.07692308"></rect>
                    <rect id="Rectangle-path" fill="#B3B3B3" x="6.17391304" y="24.6153846" width="7.7173913" height="3.07692308"></rect>
                    <rect id="Rectangle-path" fill="#B3B3B3" x="6.17391304" y="33.8461538" width="10.8043478" height="3.07692308"></rect>
                    <rect id="Rectangle-path" fill="#B3B3B3" x="6.17391304" y="43.0769231" width="7.7173913" height="3.07692308"></rect>
                    <rect id="Rectangle-path" fill="#B3B3B3" x="6.17391304" y="52.3076923" width="10.8043478" height="3.07692308"></rect>
                    <rect id="Rectangle-path" fill="#E86C60" x="29.326087" y="15.3846154" width="7.7173913" height="3.07692308"></rect>
                    <rect id="Rectangle-path" fill="#EFD358" x="35.5" y="24.6153846" width="10.8043478" height="3.07692308"></rect>
                    <rect id="Rectangle-path" fill="#FFFFFF" x="40.1304348" y="33.8461538" width="15.4347826" height="3.07692308"></rect>
                    <rect id="Rectangle-path" fill="#EFD358" x="35.5" y="43.0769231" width="10.8043478" height="3.07692308"></rect>
                    <rect id="Rectangle-path" fill="#E86C60" x="29.326087" y="52.3076923" width="7.7173913" height="3.07692308"></rect>
                </g>
                <g id="photo-editor" opacity="0.8">
                    <path d="M35.5,46.3043478 C22.7338913,46.3043478 12.3478261,35.9182826 12.3478261,23.1521739 C12.3478261,10.3860652 22.7338913,0 35.5,0 C48.2661087,0 58.6521739,10.3860652 58.6521739,23.1521739 C58.6521739,35.9182826 48.2661087,46.3043478 35.5,46.3043478 Z" id="Shape" fill="#43A6DD"></path>
                    <path d="M23.1521739,71 C10.3860652,71 0,60.6139348 0,47.8478261 C0,35.0817174 10.3860652,24.6956522 23.1521739,24.6956522 C35.9182826,24.6956522 46.3043478,35.0817174 46.3043478,47.8478261 C46.3043478,60.6139348 35.9182826,71 23.1521739,71 Z" id="Shape" fill="#E86C60"></path>
                    <path d="M47.8478261,71 C35.0817174,71 24.6956522,60.6139348 24.6956522,47.8478261 C24.6956522,35.0817174 35.0817174,24.6956522 47.8478261,24.6956522 C60.6139348,24.6956522 71,35.0817174 71,47.8478261 C71,60.6139348 60.6139348,71 47.8478261,71 Z" id="Shape" fill="#EFD358"></path>
                </g>
                <g id="fat-add" opacity="0.5" transform="translate(110.000000, 23.000000)" fill="#3CB0FF">
                    <path d="M25,9 L17,9 L17,1 C17,0.44775 16.55225,0 16,0 L10,0 C9.44775,0 9,0.44775 9,1 L9,9 L1,9 C0.44775,9 0,9.44775 0,10 L0,16 C0,16.55225 0.44775,17 1,17 L9,17 L9,25 C9,25.55225 9.44775,26 10,26 L16,26 C16.55225,26 17,25.55225 17,25 L17,17 L25,17 C25.55225,17 26,16.55225 26,16 L26,10 C26,9.44775 25.55225,9 25,9 Z" id="Shape"></path>
                </g>
                <g id="fat-add-copy" opacity="0.5" transform="translate(286.000000, 23.000000)" fill="#3CB0FF">
                    <path d="M25,9 L17,9 L17,1 C17,0.44775 16.55225,0 16,0 L10,0 C9.44775,0 9,0.44775 9,1 L9,9 L1,9 C0.44775,9 0,9.44775 0,10 L0,16 C0,16.55225 0.44775,17 1,17 L9,17 L9,25 C9,25.55225 9.44775,26 10,26 L16,26 C16.55225,26 17,25.55225 17,25 L17,17 L25,17 C25.55225,17 26,16.55225 26,16 L26,10 C26,9.44775 25.55225,9 25,9 Z" id="Shape"></path>
                </g>
            </g>
        </g>
    </g>
</svg>