<?xml version="1.0" encoding="utf-8"?>
<!-- Generator: Adobe Illustrator 19.2.1, SVG Export Plug-In . SVG Version: 6.00 Build 0)  -->
<svg version="1.1" id="Layer_1" xmlns="http://www.w3.org/2000/svg" xmlns:xlink="http://www.w3.org/1999/xlink" x="0px" y="0px"
	 viewBox="0 0 143.5 143.5" style="enable-background:new 0 0 143.5 143.5;" xml:space="preserve">
<style type="text/css">
	.st0{fill:#333333;}
	.st1{enable-background:new    ;}
	.st2{fill:#FFFFFF;}
	.st3{fill:#90EEE1;}
</style>
<circle class="st0" cx="71.8" cy="71.8" r="71.8"/>
<g class="st1">
	<path class="st2" d="M28.2,90.2c-1-1.1-1.5-2.5-1.5-4.1V60c0-1.1,0-1.9,0.1-2.7c0.1-0.7,0.3-1.5,0.5-2.3s0.6-1.4,1.1-1.9
		c0.5-0.5,1.1-0.9,1.9-1.2c0.8-0.3,1.8-0.4,2.9-0.4h10.8c1.8,0,3.4,0.1,4.9,0.3c1.5,0.2,2.9,0.6,4.2,1.2c1.4,0.6,2.5,1.3,3.4,2.2
		c0.9,0.9,1.6,2.1,2.2,3.6c0.5,1.5,0.8,3.2,0.8,5.2c0,4.2-1.3,7.3-4,9.4c-2.7,2.1-6.5,3.2-11.5,3.2h-7.2v9.4c0,1.6-0.5,2.9-1.5,4.1
		c-1,1.1-2.2,1.7-3.6,1.7C30.3,91.9,29.1,91.4,28.2,90.2z M42.4,70.4c1.3,0,2.3-0.1,3.1-0.3c0.8-0.2,1.6-0.5,2.2-1
		c0.6-0.5,1.1-1.1,1.4-1.9c0.3-0.8,0.4-1.8,0.4-3.1c0-2.3-0.5-3.8-1.6-4.6c-1.1-0.8-2.8-1.2-5.1-1.2h-6v12.1H42.4z"/>
	<path class="st2" d="M66.4,90.4c-1-1-1.4-2.4-1.4-4.2V57c0-1.8,0.6-3.1,1.8-4c1.2-0.9,2.7-1.4,4.5-1.4h11.1c1.8,0,3.4,0.1,4.8,0.2
		c1.4,0.2,2.8,0.5,4.2,0.9c1.4,0.4,2.6,1,3.5,1.8c0.9,0.7,1.7,1.7,2.2,2.9c0.6,1.2,0.9,2.7,0.9,4.3c0,5.3-3,8.4-8.9,9.5v0.1
		c1.5,0.2,2.7,0.4,3.7,0.8c0.9,0.4,1.7,0.9,2.3,1.6c0.6,0.7,1.1,1.6,1.4,2.6c0.3,1,0.6,2.3,0.7,3.9l0.5,3.7c0.3,2.8,0.1,4.9-0.6,6.2
		c-0.7,1.3-2.1,1.9-4,1.9c-1.7,0-2.9-0.5-3.8-1.6c-0.8-1.1-1.4-2.8-1.6-5.2l-0.4-3.6c-0.2-2.1-0.8-3.6-1.7-4.6
		c-1-0.9-2.5-1.4-4.7-1.4h-5.7v10.6c0,1.9-0.5,3.3-1.4,4.3c-1,1-2.2,1.5-3.7,1.5C68.6,91.9,67.4,91.4,66.4,90.4z M79.5,68.9
		c1.1,0,2.2-0.1,3-0.2c0.9-0.1,1.8-0.4,2.6-0.7c0.9-0.4,1.6-0.9,2-1.7c0.5-0.8,0.7-1.7,0.7-2.8c0-0.8-0.1-1.4-0.3-2
		c-0.2-0.6-0.4-1.1-0.7-1.5c-0.3-0.4-0.6-0.7-1.1-1c-0.5-0.3-0.9-0.5-1.3-0.6c-0.4-0.1-1-0.2-1.6-0.3s-1.2-0.1-1.7-0.1
		c-0.5,0-1.1,0-1.9,0H75v11H79.5z"/>
</g>
<circle class="st3" cx="112.1" cy="87.2" r="4.8"/>
</svg>
