<?xml version="1.0" encoding="UTF-8"?>
<svg width="1920px" height="100px" viewBox="0 0 1920 100" version="1.1" xmlns="http://www.w3.org/2000/svg" xmlns:xlink="http://www.w3.org/1999/xlink">
    <!-- Generator: Sketch 49.2 (51160) - http://www.bohemiancoding.com/sketch -->
    <title>Group 3</title>
    <desc>Created with Sketch.</desc>
    <defs></defs>
    <g id="Page-1" stroke="none" stroke-width="1" fill="none" fill-rule="evenodd">
        <g id="Desktop-HD">
            <g id="Group-3" transform="translate(-123.000000, -120.000000)">
                <g id="Group-2" transform="translate(608.000000, 137.500000) rotate(19.000000) translate(-608.000000, -137.500000) translate(514.000000, 130.000000)" stroke="#FFEA3C" stroke-width="5">
                    <polyline id="Path-2" points="0 15 15.873774 0 33.6716418 15"></polyline>
                    <polyline id="Path-2-Copy-2" points="61.7313433 15 77.6051173 0 95.4029851 15"></polyline>
                    <polyline id="Path-2-Copy-4" points="123.462687 15 139.336461 0 157.134328 15"></polyline>
                    <polyline id="Path-2-Copy" points="30.8656716 15 46.7394456 0 64.5373134 15"></polyline>
                    <polyline id="Path-2-Copy-3" points="92.5970149 15 108.470789 0 126.268657 15"></polyline>
                    <polyline id="Path-2-Copy-5" points="154.328358 15 170.202132 0 188 15"></polyline>
                </g>
                <g id="Group-2-Copy-3" transform="translate(791.000000, 115.500000) rotate(97.000000) translate(-791.000000, -115.500000) translate(697.000000, 108.000000)" stroke="#FF3CF7" stroke-width="5">
                    <polyline id="Path-2-Copy-4" points="123.462687 15 139.336461 0 157.134328 15"></polyline>
                    <polyline id="Path-2-Copy-3" points="92.5970149 15 108.470789 0 126.268657 15"></polyline>
                    <polyline id="Path-2-Copy-5" points="154.328358 15 170.202132 0 188 15"></polyline>
                </g>
                <g id="Group-2-Copy-4" transform="translate(1052.000000, 115.500000) rotate(111.000000) translate(-1052.000000, -115.500000) translate(958.000000, 108.000000)" stroke="#3CB0FF" stroke-width="5">
                    <polyline id="Path-2-Copy-4" points="123.462687 15 139.336461 0 157.134328 15"></polyline>
                    <polyline id="Path-2-Copy-3" points="92.5970149 15 108.470789 0 126.268657 15"></polyline>
                    <polyline id="Path-2-Copy-5" points="154.328358 15 170.202132 0 188 15"></polyline>
                </g>
                <g id="Group-2-Copy-5" transform="translate(919.000000, 115.500000) rotate(63.000000) translate(-919.000000, -115.500000) translate(825.000000, 108.000000)" stroke="#3C6DFF" stroke-width="5">
                    <polyline id="Path-2-Copy-2" points="61.7313433 15 77.6051173 0 95.4029851 15"></polyline>
                    <polyline id="Path-2-Copy-4" points="123.462687 15 139.336461 0 157.134328 15"></polyline>
                    <polyline id="Path-2-Copy-3" points="92.5970149 15 108.470789 0 126.268657 15"></polyline>
                    <polyline id="Path-2-Copy-5" points="154.328358 15 170.202132 0 188 15"></polyline>
                </g>
                <g id="Group-2-Copy-7" transform="translate(1157.000000, 115.500000) rotate(39.000000) translate(-1157.000000, -115.500000) translate(1063.000000, 108.000000)" stroke="#3C6DFF" stroke-width="5">
                    <polyline id="Path-2-Copy-2" points="61.7313433 15 77.6051173 0 95.4029851 15"></polyline>
                    <polyline id="Path-2-Copy-4" points="123.462687 15 139.336461 0 157.134328 15"></polyline>
                    <polyline id="Path-2-Copy-3" points="92.5970149 15 108.470789 0 126.268657 15"></polyline>
                    <polyline id="Path-2-Copy-5" points="154.328358 15 170.202132 0 188 15"></polyline>
                </g>
                <g id="Group-2-Copy-8" transform="translate(1491.000000, 115.500000) rotate(137.000000) translate(-1491.000000, -115.500000) translate(1397.000000, 108.000000)" stroke="#FFEA3C" stroke-width="5">
                    <polyline id="Path-2-Copy-2" points="61.7313433 15 77.6051173 0 95.4029851 15"></polyline>
                    <polyline id="Path-2-Copy-4" points="123.462687 15 139.336461 0 157.134328 15"></polyline>
                    <polyline id="Path-2-Copy-3" points="92.5970149 15 108.470789 0 126.268657 15"></polyline>
                    <polyline id="Path-2-Copy-5" points="154.328358 15 170.202132 0 188 15"></polyline>
                </g>
                <g id="Group-2-Copy-9" transform="translate(1568.000000, 115.500000) rotate(50.000000) translate(-1568.000000, -115.500000) translate(1474.000000, 108.000000)" stroke="#FF3CF7" stroke-width="5">
                    <polyline id="Path-2-Copy-2" points="61.7313433 15 77.6051173 0 95.4029851 15"></polyline>
                    <polyline id="Path-2-Copy-4" points="123.462687 15 139.336461 0 157.134328 15"></polyline>
                    <polyline id="Path-2-Copy-3" points="92.5970149 15 108.470789 0 126.268657 15"></polyline>
                    <polyline id="Path-2-Copy-5" points="154.328358 15 170.202132 0 188 15"></polyline>
                </g>
                <g id="Group-2-Copy-10" transform="translate(1701.000000, 115.500000) rotate(23.000000) translate(-1701.000000, -115.500000) translate(1607.000000, 108.000000)" stroke="#3CB0FF" stroke-width="5">
                    <polyline id="Path-2-Copy-2" points="61.7313433 15 77.6051173 0 95.4029851 15"></polyline>
                    <polyline id="Path-2-Copy-4" points="123.462687 15 139.336461 0 157.134328 15"></polyline>
                    <polyline id="Path-2-Copy-3" points="92.5970149 15 108.470789 0 126.268657 15"></polyline>
                    <polyline id="Path-2-Copy-5" points="154.328358 15 170.202132 0 188 15"></polyline>
                </g>
                <g id="Group-2-Copy-11" transform="translate(1828.000000, 115.500000) rotate(59.000000) translate(-1828.000000, -115.500000) translate(1734.000000, 108.000000)" stroke="#3C6DFF" stroke-width="5">
                    <polyline id="Path-2-Copy-2" points="61.7313433 15 77.6051173 0 95.4029851 15"></polyline>
                    <polyline id="Path-2-Copy-4" points="123.462687 15 139.336461 0 157.134328 15"></polyline>
                    <polyline id="Path-2-Copy-3" points="92.5970149 15 108.470789 0 126.268657 15"></polyline>
                    <polyline id="Path-2-Copy-5" points="154.328358 15 170.202132 0 188 15"></polyline>
                </g>
                <g id="Group-2-Copy-15" transform="translate(2049.320507, 157.694796) rotate(-19.000000) translate(-2049.320507, -157.694796) translate(1955.320507, 150.194796)" stroke="#FF3CF7" stroke-width="5">
                    <polyline id="Path-2" points="0 15 15.873774 0 33.6716418 15"></polyline>
                    <polyline id="Path-2-Copy-2" points="61.7313433 15 77.6051173 0 95.4029851 15"></polyline>
                    <polyline id="Path-2-Copy" points="30.8656716 15 46.7394456 0 64.5373134 15"></polyline>
                </g>
                <g id="Group-2-Copy-12" transform="translate(314.000000, 115.500000) rotate(33.000000) translate(-314.000000, -115.500000) translate(220.000000, 108.000000)" stroke="#3C6DFF" stroke-width="5">
                    <polyline id="Path-2-Copy-2" points="61.7313433 15 77.6051173 0 95.4029851 15"></polyline>
                    <polyline id="Path-2-Copy-4" points="123.462687 15 139.336461 0 157.134328 15"></polyline>
                    <polyline id="Path-2-Copy-3" points="92.5970149 15 108.470789 0 126.268657 15"></polyline>
                    <polyline id="Path-2-Copy-5" points="154.328358 15 170.202132 0 188 15"></polyline>
                </g>
                <g id="Group-2-Copy-2" transform="translate(484.000000, 88.500000) rotate(117.000000) translate(-484.000000, -88.500000) translate(390.000000, 81.000000)" stroke="#3CB0FF" stroke-width="5">
                    <polyline id="Path-2-Copy-4" points="123.462687 15 139.336461 0 157.134328 15"></polyline>
                    <polyline id="Path-2-Copy-3" points="92.5970149 15 108.470789 0 126.268657 15"></polyline>
                    <polyline id="Path-2-Copy-5" points="154.328358 15 170.202132 0 188 15"></polyline>
                </g>
                <g id="Group-2-Copy-6" transform="translate(1307.000000, 89.500000) rotate(66.000000) translate(-1307.000000, -89.500000) translate(1213.000000, 82.000000)" stroke="#3CB0FF" stroke-width="5">
                    <polyline id="Path-2-Copy-4" points="123.462687 15 139.336461 0 157.134328 15"></polyline>
                    <polyline id="Path-2-Copy-3" points="92.5970149 15 108.470789 0 126.268657 15"></polyline>
                    <polyline id="Path-2-Copy-5" points="154.328358 15 170.202132 0 188 15"></polyline>
                </g>
                <g id="Group-2-Copy" transform="translate(176.000000, 94.500000) rotate(61.000000) translate(-176.000000, -94.500000) translate(82.000000, 87.000000)" stroke="#FFEA3C" stroke-width="5">
                    <polyline id="Path-2-Copy-4" points="123.462687 15 139.336461 0 157.134328 15"></polyline>
                    <polyline id="Path-2-Copy-3" points="92.5970149 15 108.470789 0 126.268657 15"></polyline>
                    <polyline id="Path-2-Copy-5" points="154.328358 15 170.202132 0 188 15"></polyline>
                </g>
                <circle id="Oval-3" fill="#3C6DFF" cx="543.5" cy="174.5" r="10.5"></circle>
                <circle id="Oval-3-Copy-6" fill="#3C6DFF" cx="186.5" cy="181.5" r="10.5"></circle>
                <circle id="Oval-3-Copy" fill="#FFEA3C" cx="868" cy="151" r="13"></circle>
                <circle id="Oval-3-Copy-5" fill="#FF3CF7" cx="267" cy="144" r="13"></circle>
                <circle id="Oval-3-Copy-2" fill="#42B3FF" cx="1272" cy="180" r="10"></circle>
                <circle id="Oval-3-Copy-3" fill="#3C6DFF" cx="1533" cy="128" r="10"></circle>
                <circle id="Oval-3-Copy-4" fill="#FFEA3C" cx="1690" cy="154" r="10"></circle>
                <polygon id="Triangle" fill="#3C6DFF" transform="translate(1120.000000, 157.500000) rotate(-48.000000) translate(-1120.000000, -157.500000) " points="1120 151 1133 164 1107 164"></polygon>
                <polygon id="Triangle-Copy-3" fill="#FFEA3C" transform="translate(408.000000, 129.500000) rotate(-205.000000) translate(-408.000000, -129.500000) " points="408 123 421 136 395 136"></polygon>
                <polygon id="Triangle-Copy-5" fill="#FFEA3C" transform="translate(487.529020, 213.385038) rotate(-205.000000) translate(-487.529020, -213.385038) " points="487.52902 206.885038 500.52902 219.885038 474.52902 219.885038"></polygon>
                <polygon id="Triangle-Copy" fill="#FF3CF7" transform="translate(1413.500000, 121.500000) rotate(-131.000000) translate(-1413.500000, -121.500000) " points="1413.5 113 1430 130 1397 130"></polygon>
                <polygon id="Triangle-Copy-2" fill="#42B3FF" transform="translate(1902.000000, 133.500000) rotate(-208.000000) translate(-1902.000000, -133.500000) " points="1902 128 1913 139 1891 139"></polygon>
                <polygon id="Triangle-Copy-6" fill="#3C6DFF" transform="translate(1924.294517, 176.020399) rotate(-148.000000) translate(-1924.294517, -176.020399) " points="1924.29452 170.520399 1935.29452 181.520399 1913.29452 181.520399"></polygon>
                <polygon id="Triangle-Copy-4" fill="#FFFFFF" transform="translate(1946.000000, 160.500000) rotate(-208.000000) translate(-1946.000000, -160.500000) " points="1946 155 1957 166 1935 166"></polygon>
                <g id="Group-2-Copy-13" transform="translate(82.123479, 119.781915) rotate(34.000000) translate(-82.123479, -119.781915) translate(-11.876521, 112.281915)" stroke="#3CB0FF" stroke-width="5">
                    <polyline id="Path-2-Copy-4" points="123.462687 15 139.336461 0 157.134328 15"></polyline>
                    <polyline id="Path-2-Copy-5" points="154.328358 15 170.202132 0 188 15"></polyline>
                </g>
            </g>
        </g>
    </g>
</svg>