<?xml version="1.0" encoding="utf-8"?>
<!-- Generator: Adobe Illustrator 19.2.1, SVG Export Plug-In . SVG Version: 6.00 Build 0)  -->
<svg version="1.1" id="Layer_1" xmlns="http://www.w3.org/2000/svg" xmlns:xlink="http://www.w3.org/1999/xlink" x="0px" y="0px"
	 viewBox="0 0 1390.6 300" style="enable-background:new 0 0 1390.6 300;" xml:space="preserve">
<style type="text/css">
	.st0{opacity:0.1;}
	.st1{fill:none;stroke:#2A363B;stroke-width:5;stroke-linecap:round;stroke-linejoin:round;stroke-miterlimit:10;}
	.st2{fill:none;stroke:#FFDD00;stroke-width:5;stroke-linecap:round;stroke-linejoin:round;stroke-miterlimit:10;}
	.st3{fill:none;stroke:#F6378F;stroke-width:5;stroke-linecap:round;stroke-linejoin:round;stroke-miterlimit:10;}
	.st4{fill:none;stroke:#90D26D;stroke-width:5;stroke-linecap:round;stroke-linejoin:round;stroke-miterlimit:10;}
	
		.st5{opacity:0.1;fill:none;stroke:#90EEE1;stroke-width:5;stroke-linecap:round;stroke-linejoin:round;stroke-miterlimit:10;enable-background:new    ;}
	
		.st6{opacity:0.1;fill:none;stroke:#574B90;stroke-width:5;stroke-linecap:round;stroke-linejoin:round;stroke-miterlimit:10;enable-background:new    ;}
	
		.st7{opacity:0.1;fill:none;stroke:#90D26D;stroke-width:5;stroke-linecap:round;stroke-linejoin:round;stroke-miterlimit:10;enable-background:new    ;}
	
		.st8{opacity:0.1;fill:none;stroke:#FFDD00;stroke-width:5;stroke-linecap:round;stroke-linejoin:round;stroke-miterlimit:10;enable-background:new    ;}
	
		.st9{opacity:0.1;fill:#90EEE1;stroke:#90EEE1;stroke-width:5;stroke-linecap:round;stroke-linejoin:round;stroke-miterlimit:10;enable-background:new    ;}
	
		.st10{opacity:0.1;fill:#FFDD00;stroke:#FFDD00;stroke-width:5;stroke-linecap:round;stroke-linejoin:round;stroke-miterlimit:10;enable-background:new    ;}
	
		.st11{opacity:0.1;fill:#2A363B;stroke:#2A363B;stroke-width:5;stroke-linecap:round;stroke-linejoin:round;stroke-miterlimit:10;enable-background:new    ;}
	
		.st12{opacity:0.1;fill:#90D26D;stroke:#90D26D;stroke-width:5;stroke-linecap:round;stroke-linejoin:round;stroke-miterlimit:10;enable-background:new    ;}
</style>
<g class="st0">
	<line class="st1" x1="275.4" y1="102.3" x2="265.3" y2="112.4"/>
	<line class="st1" x1="275.4" y1="112.4" x2="265.3" y2="102.3"/>
</g>
<g class="st0">
	<line class="st2" x1="115.9" y1="261.8" x2="105.9" y2="271.9"/>
	<line class="st2" x1="115.9" y1="271.9" x2="105.9" y2="261.8"/>
</g>
<g class="st0">
	<line class="st3" x1="403" y1="229.9" x2="392.9" y2="240"/>
	<line class="st3" x1="403" y1="240" x2="392.9" y2="229.9"/>
</g>
<g class="st0">
	<line class="st4" x1="554.2" y1="250" x2="541" y2="263.2"/>
	<line class="st4" x1="554.2" y1="263.2" x2="541" y2="250"/>
</g>
<g class="st0">
	<line class="st4" x1="889.6" y1="118.6" x2="879.5" y2="128.7"/>
	<line class="st4" x1="889.6" y1="128.7" x2="879.5" y2="118.6"/>
</g>
<g class="st0">
	<line class="st4" x1="421.6" y1="63.9" x2="411.5" y2="73.9"/>
	<line class="st4" x1="421.6" y1="73.9" x2="411.5" y2="63.9"/>
</g>
<g class="st0">
	<line class="st2" x1="665" y1="60.4" x2="648" y2="77.4"/>
	<line class="st2" x1="665" y1="77.4" x2="648" y2="60.4"/>
</g>
<g class="st0">
	<line class="st3" x1="710.6" y1="269.1" x2="693.6" y2="286.1"/>
	<line class="st3" x1="710.6" y1="286.1" x2="693.6" y2="269.1"/>
</g>
<g class="st0">
	<line class="st1" x1="994.3" y1="226.4" x2="977.3" y2="243.4"/>
	<line class="st1" x1="994.3" y1="243.4" x2="977.3" y2="226.4"/>
</g>
<g class="st0">
	<line class="st3" x1="1348.3" y1="70.5" x2="1335.4" y2="83.4"/>
	<line class="st3" x1="1348.3" y1="83.4" x2="1335.4" y2="70.5"/>
</g>
<g class="st0">
	<line class="st2" x1="1233.9" y1="234.1" x2="1221" y2="247"/>
	<line class="st2" x1="1233.9" y1="247" x2="1221" y2="234.1"/>
</g>
<g class="st0">
	<line class="st3" x1="1105.4" y1="40.4" x2="1088.4" y2="57.4"/>
	<line class="st3" x1="1105.4" y1="57.4" x2="1088.4" y2="40.4"/>
</g>
<g class="st0">
	<line class="st3" x1="73.5" y1="191.4" x2="56.5" y2="208.3"/>
	<line class="st3" x1="73.5" y1="208.3" x2="56.5" y2="191.4"/>
</g>
<circle class="st5" cx="94.3" cy="128.4" r="7"/>
<circle class="st6" cx="231.1" cy="240.6" r="7"/>
<ellipse transform="matrix(0.7071 -0.7071 0.7071 0.7071 13.2532 358.7522)" class="st5" cx="439.7" cy="163.4" rx="12.1" ry="12.1"/>
<circle class="st7" cx="634.2" cy="209.7" r="7"/>
<circle class="st5" cx="809.3" cy="69.8" r="7.9"/>
<circle class="st8" cx="865.2" cy="277.6" r="7"/>
<circle class="st7" cx="1051.3" cy="169.4" r="7"/>
<circle class="st9" cx="1234.4" cy="92" r="7"/>
<circle class="st6" cx="1325.6" cy="277.6" r="7"/>
<rect x="159.9" y="20.1" class="st10" width="28.8" height="28.8"/>
<rect x="531.9" y="43.2" class="st8" width="11.5" height="11.5"/>
<rect x="761" y="190" class="st11" width="11.5" height="11.5"/>
<rect x="1328.6" y="152.4" transform="matrix(0.7071 -0.7071 0.7071 0.7071 277.1958 994.2236)" class="st12" width="20.2" height="20.2"/>
<rect x="985.8" y="70.1" class="st6" width="11.5" height="11.5"/>
<rect x="1143.3" y="151.2" class="st8" width="11.5" height="11.5"/>
<rect x="1096.9" y="271.9" class="st6" width="11.5" height="11.5"/>
<path class="st5" d="M306.7,172.7c-13.1,4.1-21.1,2.3-26.2-0.5c-6.3-3.4-8.5-8.6-14-8.9c-5.8-0.3-10.9,5.2-14.5,10.3"/>
<path class="st6" d="M815.7,126.7c-13.1,4.1-43.9,5.2-49,2.4"/>
<path class="st5" d="M1308.7,40.7c-13.7-9.1-22.3,17.6-27.4,14.8c-6.3-3.4-7.4-23.9-12.9-24.2c-5.8-0.3-10.9,5.2-14.5,10.3"/>
</svg>
